<svg width="284" height="75" viewBox="0 0 284 75" fill="none" xmlns="http://www.w3.org/2000/svg">
<rect width="284" height="75" rx="37.5" fill="#EFC224"/>
<path d="M54.6588 45.2C53.2321 45.2 51.9454 44.8933 50.7988 44.28C49.6521 43.6533 48.7521 42.7933 48.0988 41.7C47.4454 40.5933 47.1188 39.36 47.1188 38C47.1188 36.64 47.4454 35.4133 48.0988 34.32C48.7521 33.2133 49.6521 32.3533 50.7988 31.74C51.9454 31.1133 53.2321 30.8 54.6588 30.8C56.0854 30.8 57.3721 31.1133 58.5188 31.74C59.6654 32.3533 60.5654 33.2067 61.2188 34.3C61.8721 35.3933 62.1988 36.6267 62.1988 38C62.1988 39.3733 61.8721 40.6067 61.2188 41.7C60.5654 42.7933 59.6654 43.6533 58.5188 44.28C57.3721 44.8933 56.0854 45.2 54.6588 45.2ZM54.6588 42.92C55.5921 42.92 56.4321 42.7133 57.1788 42.3C57.9254 41.8733 58.5121 41.2867 58.9388 40.54C59.3654 39.78 59.5788 38.9333 59.5788 38C59.5788 37.0667 59.3654 36.2267 58.9388 35.48C58.5121 34.72 57.9254 34.1333 57.1788 33.72C56.4321 33.2933 55.5921 33.08 54.6588 33.08C53.7254 33.08 52.8854 33.2933 52.1388 33.72C51.3921 34.1333 50.8054 34.72 50.3788 35.48C49.9521 36.2267 49.7388 37.0667 49.7388 38C49.7388 38.9333 49.9521 39.78 50.3788 40.54C50.8054 41.2867 51.3921 41.8733 52.1388 42.3C52.8854 42.7133 53.7254 42.92 54.6588 42.92ZM73.058 36.44H69.318V45H66.818V36.44H63.058V34.32H73.058V36.44ZM85.1114 34.32V45H82.6314V36.44H77.3714V45H74.8714V34.32H85.1114ZM94.4047 34.2C95.4447 34.2 96.3714 34.4267 97.1847 34.88C98.0114 35.3333 98.658 35.9733 99.1247 36.8C99.5914 37.6267 99.8247 38.58 99.8247 39.66C99.8247 40.74 99.5914 41.7 99.1247 42.54C98.658 43.3667 98.0114 44.0067 97.1847 44.46C96.3714 44.9133 95.4447 45.14 94.4047 45.14C92.9647 45.14 91.8247 44.66 90.9847 43.7V48.88H88.4847V34.32H90.8647V35.72C91.278 35.2133 91.7847 34.8333 92.3847 34.58C92.998 34.3267 93.6714 34.2 94.4047 34.2ZM94.1247 43C95.0447 43 95.798 42.6933 96.3847 42.08C96.9847 41.4667 97.2847 40.66 97.2847 39.66C97.2847 38.66 96.9847 37.8533 96.3847 37.24C95.798 36.6267 95.0447 36.32 94.1247 36.32C93.5247 36.32 92.9847 36.46 92.5047 36.74C92.0247 37.0067 91.6447 37.3933 91.3647 37.9C91.0847 38.4067 90.9447 38.9933 90.9447 39.66C90.9447 40.3267 91.0847 40.9133 91.3647 41.42C91.6447 41.9267 92.0247 42.32 92.5047 42.6C92.9847 42.8667 93.5247 43 94.1247 43ZM106.156 34.2C107.729 34.2 108.929 34.58 109.756 35.34C110.596 36.0867 111.016 37.22 111.016 38.74V45H108.656V43.7C108.349 44.1667 107.909 44.5267 107.336 44.78C106.776 45.02 106.096 45.14 105.296 45.14C104.496 45.14 103.796 45.0067 103.196 44.74C102.596 44.46 102.129 44.08 101.796 43.6C101.476 43.1067 101.316 42.5533 101.316 41.94C101.316 40.98 101.669 40.2133 102.376 39.64C103.096 39.0533 104.223 38.76 105.756 38.76H108.516V38.6C108.516 37.8533 108.289 37.28 107.836 36.88C107.396 36.48 106.736 36.28 105.856 36.28C105.256 36.28 104.663 36.3733 104.076 36.56C103.503 36.7467 103.016 37.0067 102.616 37.34L101.636 35.52C102.196 35.0933 102.869 34.7667 103.656 34.54C104.443 34.3133 105.276 34.2 106.156 34.2ZM105.816 43.32C106.443 43.32 106.996 43.18 107.476 42.9C107.969 42.6067 108.316 42.1933 108.516 41.66V40.42H105.936C104.496 40.42 103.776 40.8933 103.776 41.84C103.776 42.2933 103.956 42.6533 104.316 42.92C104.676 43.1867 105.176 43.32 105.816 43.32ZM121.85 39.44C123.17 39.84 123.83 40.6933 123.83 42C123.83 42.96 123.47 43.7 122.75 44.22C122.03 44.74 120.963 45 119.55 45H114.11V34.32H119.33C120.636 34.32 121.656 34.56 122.39 35.04C123.123 35.52 123.49 36.2 123.49 37.08C123.49 37.6267 123.343 38.1 123.05 38.5C122.77 38.9 122.37 39.2133 121.85 39.44ZM116.49 38.78H119.11C120.403 38.78 121.05 38.3333 121.05 37.44C121.05 36.5733 120.403 36.14 119.11 36.14H116.49V38.78ZM119.35 43.18C120.723 43.18 121.41 42.7333 121.41 41.84C121.41 41.3733 121.25 41.0267 120.93 40.8C120.61 40.56 120.11 40.44 119.43 40.44H116.49V43.18H119.35ZM126.493 34.32H128.993V41.36L134.893 34.32H137.173V45H134.673V37.96L128.793 45H126.493V34.32ZM148.995 36.44H145.255V45H142.755V36.44H138.995V34.32H148.995V36.44ZM156.169 37.84C157.529 37.84 158.569 38.1467 159.289 38.76C160.022 39.3733 160.389 40.24 160.389 41.36C160.389 42.5333 159.989 43.44 159.189 44.08C158.389 44.72 157.262 45.0333 155.809 45.02L150.809 45V34.32H153.309V37.82L156.169 37.84ZM155.589 43.18C156.322 43.1933 156.882 43.04 157.269 42.72C157.656 42.4 157.849 41.9333 157.849 41.32C157.849 40.72 157.662 40.28 157.289 40C156.916 39.72 156.349 39.5733 155.589 39.56L153.309 39.54V43.16L155.589 43.18ZM174.494 39.44C175.16 39.6267 175.674 39.9333 176.034 40.36C176.407 40.7733 176.594 41.2733 176.594 41.86C176.594 42.5133 176.374 43.0933 175.934 43.6C175.494 44.0933 174.887 44.48 174.114 44.76C173.34 45.04 172.46 45.18 171.474 45.18C170.647 45.18 169.84 45.0867 169.054 44.9C168.267 44.7 167.554 44.42 166.914 44.06L167.634 42.2C168.154 42.4933 168.74 42.72 169.394 42.88C170.047 43.04 170.7 43.12 171.354 43.12C172.194 43.12 172.847 42.9933 173.314 42.74C173.794 42.4733 174.034 42.1133 174.034 41.66C174.034 41.2467 173.847 40.9267 173.474 40.7C173.114 40.4733 172.6 40.36 171.934 40.36H169.854V38.68H171.734C172.36 38.68 172.847 38.5733 173.194 38.36C173.554 38.1467 173.734 37.8467 173.734 37.46C173.734 37.0733 173.52 36.7667 173.094 36.54C172.667 36.3133 172.08 36.2 171.334 36.2C170.267 36.2 169.14 36.46 167.954 36.98L167.314 35.14C168.714 34.4867 170.127 34.16 171.554 34.16C172.46 34.16 173.274 34.2867 173.994 34.54C174.714 34.78 175.274 35.1267 175.674 35.58C176.087 36.02 176.294 36.5267 176.294 37.1C176.294 37.62 176.134 38.0867 175.814 38.5C175.494 38.9 175.054 39.2133 174.494 39.44ZM183.168 34.2C184.741 34.2 185.941 34.58 186.768 35.34C187.608 36.0867 188.028 37.22 188.028 38.74V45H185.668V43.7C185.361 44.1667 184.921 44.5267 184.348 44.78C183.788 45.02 183.108 45.14 182.308 45.14C181.508 45.14 180.808 45.0067 180.208 44.74C179.608 44.46 179.141 44.08 178.808 43.6C178.488 43.1067 178.328 42.5533 178.328 41.94C178.328 40.98 178.681 40.2133 179.388 39.64C180.108 39.0533 181.234 38.76 182.768 38.76H185.528V38.6C185.528 37.8533 185.301 37.28 184.848 36.88C184.408 36.48 183.748 36.28 182.868 36.28C182.268 36.28 181.674 36.3733 181.088 36.56C180.514 36.7467 180.028 37.0067 179.628 37.34L178.648 35.52C179.208 35.0933 179.881 34.7667 180.668 34.54C181.454 34.3133 182.288 34.2 183.168 34.2ZM182.828 43.32C183.454 43.32 184.008 43.18 184.488 42.9C184.981 42.6067 185.328 42.1933 185.528 41.66V40.42H182.948C181.508 40.42 180.788 40.8933 180.788 41.84C180.788 42.2933 180.968 42.6533 181.328 42.92C181.688 43.1867 182.188 43.32 182.828 43.32ZM200.141 34.32V45H197.901V41.78H195.081L192.901 45H190.221L192.741 41.44C191.968 41.1733 191.375 40.7667 190.961 40.22C190.561 39.66 190.361 38.9733 190.361 38.16C190.361 36.9333 190.795 35.9867 191.661 35.32C192.528 34.6533 193.721 34.32 195.241 34.32H200.141ZM195.321 36.42C193.708 36.42 192.901 37.0267 192.901 38.24C192.901 39.44 193.681 40.04 195.241 40.04H197.901V36.42H195.321ZM211.244 39.44C212.564 39.84 213.224 40.6933 213.224 42C213.224 42.96 212.864 43.7 212.144 44.22C211.424 44.74 210.358 45 208.944 45H203.504V34.32H208.724C210.031 34.32 211.051 34.56 211.784 35.04C212.518 35.52 212.884 36.2 212.884 37.08C212.884 37.6267 212.738 38.1 212.444 38.5C212.164 38.9 211.764 39.2133 211.244 39.44ZM205.884 38.78H208.504C209.798 38.78 210.444 38.3333 210.444 37.44C210.444 36.5733 209.798 36.14 208.504 36.14H205.884V38.78ZM208.744 43.18C210.118 43.18 210.804 42.7333 210.804 41.84C210.804 41.3733 210.644 41.0267 210.324 40.8C210.004 40.56 209.504 40.44 208.824 40.44H205.884V43.18H208.744ZM220.327 40.72H218.387V45H215.887V34.32H218.387V38.64H220.387L223.547 34.32H226.227L222.347 39.46L226.487 45H223.547L220.327 40.72ZM237.725 34.32L232.725 45.86C232.258 47.02 231.692 47.8333 231.025 48.3C230.358 48.78 229.552 49.02 228.605 49.02C228.072 49.02 227.545 48.9333 227.025 48.76C226.505 48.5867 226.078 48.3467 225.745 48.04L226.745 46.2C226.985 46.4267 227.265 46.6067 227.585 46.74C227.918 46.8733 228.252 46.94 228.585 46.94C229.025 46.94 229.385 46.8267 229.665 46.6C229.958 46.3733 230.225 45.9933 230.465 45.46L230.645 45.04L225.985 34.32H228.585L231.945 42.22L235.325 34.32H237.725Z" fill="black"/>
</svg>
