<svg width="270" height="75" viewBox="0 0 270 75" fill="none" xmlns="http://www.w3.org/2000/svg">
<rect x="1" y="1" width="268" height="73" rx="36.5" stroke="#EFC224" stroke-width="2"/>
<path d="M71.5641 45.2C70.1507 45.2 68.8707 44.8933 67.7241 44.28C66.5907 43.6533 65.6974 42.7933 65.0441 41.7C64.4041 40.6067 64.0841 39.3733 64.0841 38C64.0841 36.6267 64.4107 35.3933 65.0641 34.3C65.7174 33.2067 66.6107 32.3533 67.7441 31.74C68.8907 31.1133 70.1707 30.8 71.5841 30.8C72.7307 30.8 73.7774 31 74.7241 31.4C75.6707 31.8 76.4707 32.38 77.1241 33.14L75.4441 34.72C74.4307 33.6267 73.1841 33.08 71.7041 33.08C70.7441 33.08 69.8841 33.2933 69.1241 33.72C68.3641 34.1333 67.7707 34.7133 67.3441 35.46C66.9174 36.2067 66.7041 37.0533 66.7041 38C66.7041 38.9467 66.9174 39.7933 67.3441 40.54C67.7707 41.2867 68.3641 41.8733 69.1241 42.3C69.8841 42.7133 70.7441 42.92 71.7041 42.92C73.1841 42.92 74.4307 42.3667 75.4441 41.26L77.1241 42.86C76.4707 43.62 75.6641 44.2 74.7041 44.6C73.7574 45 72.7107 45.2 71.5641 45.2ZM89.7581 45V37.92L86.1581 43.88H85.0781L81.5381 37.9V45H79.2581V34.32H81.8781L85.6781 41L89.6581 34.32H91.9981L92.0181 45H89.7581ZM100.131 45.14C99.0514 45.14 98.0781 44.9067 97.2114 44.44C96.3447 43.9733 95.6647 43.3267 95.1714 42.5C94.6914 41.66 94.4514 40.7133 94.4514 39.66C94.4514 38.6067 94.6914 37.6667 95.1714 36.84C95.6647 36.0133 96.3447 35.3667 97.2114 34.9C98.0781 34.4333 99.0514 34.2 100.131 34.2C101.225 34.2 102.205 34.4333 103.071 34.9C103.938 35.3667 104.611 36.0133 105.091 36.84C105.585 37.6667 105.831 38.6067 105.831 39.66C105.831 40.7133 105.585 41.66 105.091 42.5C104.611 43.3267 103.938 43.9733 103.071 44.44C102.205 44.9067 101.225 45.14 100.131 45.14ZM100.131 43C101.051 43 101.811 42.6933 102.411 42.08C103.011 41.4667 103.311 40.66 103.311 39.66C103.311 38.66 103.011 37.8533 102.411 37.24C101.811 36.6267 101.051 36.32 100.131 36.32C99.2114 36.32 98.4514 36.6267 97.8514 37.24C97.2647 37.8533 96.9714 38.66 96.9714 39.66C96.9714 40.66 97.2647 41.4667 97.8514 42.08C98.4514 42.6933 99.2114 43 100.131 43ZM116.37 36.44H112.63V45H110.13V36.44H106.37V34.32H116.37V36.44ZM124.104 34.2C125.144 34.2 126.071 34.4267 126.884 34.88C127.711 35.3333 128.357 35.9733 128.824 36.8C129.291 37.6267 129.524 38.58 129.524 39.66C129.524 40.74 129.291 41.7 128.824 42.54C128.357 43.3667 127.711 44.0067 126.884 44.46C126.071 44.9133 125.144 45.14 124.104 45.14C122.664 45.14 121.524 44.66 120.684 43.7V48.88H118.184V34.32H120.564V35.72C120.977 35.2133 121.484 34.8333 122.084 34.58C122.697 34.3267 123.371 34.2 124.104 34.2ZM123.824 43C124.744 43 125.497 42.6933 126.084 42.08C126.684 41.4667 126.984 40.66 126.984 39.66C126.984 38.66 126.684 37.8533 126.084 37.24C125.497 36.6267 124.744 36.32 123.824 36.32C123.224 36.32 122.684 36.46 122.204 36.74C121.724 37.0067 121.344 37.3933 121.064 37.9C120.784 38.4067 120.644 38.9933 120.644 39.66C120.644 40.3267 120.784 40.9133 121.064 41.42C121.344 41.9267 121.724 42.32 122.204 42.6C122.684 42.8667 123.224 43 123.824 43ZM142.012 39.72C142.012 39.8933 141.999 40.14 141.972 40.46H133.592C133.739 41.2467 134.119 41.8733 134.732 42.34C135.359 42.7933 136.132 43.02 137.052 43.02C138.225 43.02 139.192 42.6333 139.952 41.86L141.292 43.4C140.812 43.9733 140.205 44.4067 139.472 44.7C138.739 44.9933 137.912 45.14 136.992 45.14C135.819 45.14 134.785 44.9067 133.892 44.44C132.999 43.9733 132.305 43.3267 131.812 42.5C131.332 41.66 131.092 40.7133 131.092 39.66C131.092 38.62 131.325 37.6867 131.792 36.86C132.272 36.02 132.932 35.3667 133.772 34.9C134.612 34.4333 135.559 34.2 136.612 34.2C137.652 34.2 138.579 34.4333 139.392 34.9C140.219 35.3533 140.859 36 141.312 36.84C141.779 37.6667 142.012 38.6267 142.012 39.72ZM136.612 36.2C135.812 36.2 135.132 36.44 134.572 36.92C134.025 37.3867 133.692 38.0133 133.572 38.8H139.632C139.525 38.0267 139.199 37.4 138.652 36.92C138.105 36.44 137.425 36.2 136.612 36.2ZM152.816 36.44H149.076V45H146.576V36.44H142.816V34.32H152.816V36.44ZM159.989 37.84C161.349 37.84 162.389 38.1467 163.109 38.76C163.843 39.3733 164.209 40.24 164.209 41.36C164.209 42.5333 163.809 43.44 163.009 44.08C162.209 44.72 161.083 45.0333 159.629 45.02L154.629 45V34.32H157.129V37.82L159.989 37.84ZM159.409 43.18C160.143 43.1933 160.703 43.04 161.089 42.72C161.476 42.4 161.669 41.9333 161.669 41.32C161.669 40.72 161.483 40.28 161.109 40C160.736 39.72 160.169 39.5733 159.409 39.56L157.129 39.54V43.16L159.409 43.18ZM179.674 39.44C180.994 39.84 181.654 40.6933 181.654 42C181.654 42.96 181.294 43.7 180.574 44.22C179.854 44.74 178.787 45 177.374 45H171.934V34.32H177.154C178.461 34.32 179.481 34.56 180.214 35.04C180.947 35.52 181.314 36.2 181.314 37.08C181.314 37.6267 181.167 38.1 180.874 38.5C180.594 38.9 180.194 39.2133 179.674 39.44ZM174.314 38.78H176.934C178.227 38.78 178.874 38.3333 178.874 37.44C178.874 36.5733 178.227 36.14 176.934 36.14H174.314V38.78ZM177.174 43.18C178.547 43.18 179.234 42.7333 179.234 41.84C179.234 41.3733 179.074 41.0267 178.754 40.8C178.434 40.56 177.934 40.44 177.254 40.44H174.314V43.18H177.174ZM189.177 45.14C188.07 45.14 187.077 44.9067 186.197 44.44C185.317 43.9733 184.63 43.3267 184.137 42.5C183.643 41.66 183.397 40.7133 183.397 39.66C183.397 38.6067 183.643 37.6667 184.137 36.84C184.63 36.0133 185.31 35.3667 186.177 34.9C187.057 34.4333 188.057 34.2 189.177 34.2C190.23 34.2 191.15 34.4133 191.937 34.84C192.737 35.2667 193.337 35.88 193.737 36.68L191.817 37.8C191.51 37.3067 191.123 36.94 190.657 36.7C190.203 36.4467 189.703 36.32 189.157 36.32C188.223 36.32 187.45 36.6267 186.837 37.24C186.223 37.84 185.917 38.6467 185.917 39.66C185.917 40.6733 186.217 41.4867 186.817 42.1C187.43 42.7 188.21 43 189.157 43C189.703 43 190.203 42.88 190.657 42.64C191.123 42.3867 191.51 42.0133 191.817 41.52L193.737 42.64C193.323 43.44 192.717 44.06 191.917 44.5C191.13 44.9267 190.217 45.14 189.177 45.14ZM205.782 39.72C205.782 39.8933 205.768 40.14 205.742 40.46H197.362C197.508 41.2467 197.888 41.8733 198.502 42.34C199.128 42.7933 199.902 43.02 200.822 43.02C201.995 43.02 202.962 42.6333 203.722 41.86L205.062 43.4C204.582 43.9733 203.975 44.4067 203.242 44.7C202.508 44.9933 201.682 45.14 200.762 45.14C199.588 45.14 198.555 44.9067 197.662 44.44C196.768 43.9733 196.075 43.3267 195.582 42.5C195.102 41.66 194.862 40.7133 194.862 39.66C194.862 38.62 195.095 37.6867 195.562 36.86C196.042 36.02 196.702 35.3667 197.542 34.9C198.382 34.4333 199.328 34.2 200.382 34.2C201.422 34.2 202.348 34.4333 203.162 34.9C203.988 35.3533 204.628 36 205.082 36.84C205.548 37.6667 205.782 38.6267 205.782 39.72ZM200.382 36.2C199.582 36.2 198.902 36.44 198.342 36.92C197.795 37.3867 197.462 38.0133 197.342 38.8H203.402C203.295 38.0267 202.968 37.4 202.422 36.92C201.875 36.44 201.195 36.2 200.382 36.2Z" fill="#EFC224"/>
</svg>
