<svg width="284" height="75" viewBox="0 0 284 75" fill="none" xmlns="http://www.w3.org/2000/svg">
<rect x="1" y="1" width="282" height="73" rx="36.5" stroke="#B0C2CF" stroke-width="2"/>
<path d="M46.3011 37.72C47.1944 37.96 47.8744 38.3733 48.3411 38.96C48.8078 39.5333 49.0411 40.2533 49.0411 41.12C49.0411 42.3467 48.5878 43.3 47.6811 43.98C46.7744 44.66 45.4611 45 43.7411 45H37.1011V31H43.3611C44.9344 31 46.1611 31.3133 47.0411 31.94C47.9211 32.5667 48.3611 33.4533 48.3611 34.6C48.3611 35.3333 48.1811 35.9667 47.8211 36.5C47.4744 37.0333 46.9678 37.44 46.3011 37.72ZM39.6611 36.98H43.1411C43.9811 36.98 44.6211 36.8133 45.0611 36.48C45.5011 36.1467 45.7211 35.6533 45.7211 35C45.7211 34.3467 45.5011 33.8533 45.0611 33.52C44.6211 33.1733 43.9811 33 43.1411 33H39.6611V36.98ZM43.6611 43C45.5011 43 46.4211 42.3067 46.4211 40.92C46.4211 39.56 45.5011 38.88 43.6611 38.88H39.6611V43H43.6611ZM55.703 34.2C57.2763 34.2 58.4763 34.58 59.303 35.34C60.143 36.0867 60.563 37.22 60.563 38.74V45H58.203V43.7C57.8963 44.1667 57.4563 44.5267 56.883 44.78C56.323 45.02 55.643 45.14 54.843 45.14C54.043 45.14 53.343 45.0067 52.743 44.74C52.143 44.46 51.6763 44.08 51.343 43.6C51.023 43.1067 50.863 42.5533 50.863 41.94C50.863 40.98 51.2163 40.2133 51.923 39.64C52.643 39.0533 53.7696 38.76 55.303 38.76H58.063V38.6C58.063 37.8533 57.8363 37.28 57.383 36.88C56.943 36.48 56.283 36.28 55.403 36.28C54.803 36.28 54.2096 36.3733 53.623 36.56C53.0496 36.7467 52.563 37.0067 52.163 37.34L51.183 35.52C51.743 35.0933 52.4163 34.7667 53.203 34.54C53.9896 34.3133 54.823 34.2 55.703 34.2ZM55.363 43.32C55.9896 43.32 56.543 43.18 57.023 42.9C57.5163 42.6067 57.863 42.1933 58.063 41.66V40.42H55.483C54.043 40.42 53.323 40.8933 53.323 41.84C53.323 42.2933 53.503 42.6533 53.863 42.92C54.223 43.1867 54.723 43.32 55.363 43.32ZM79.3966 34.32V45H63.6566V34.32H66.1566V42.88H70.2966V34.32H72.7966V42.88H76.8966V34.32H79.3966ZM92.7581 39.72C92.7581 39.8933 92.7448 40.14 92.7181 40.46H84.3381C84.4848 41.2467 84.8648 41.8733 85.4781 42.34C86.1048 42.7933 86.8781 43.02 87.7981 43.02C88.9715 43.02 89.9381 42.6333 90.6981 41.86L92.0381 43.4C91.5581 43.9733 90.9515 44.4067 90.2181 44.7C89.4848 44.9933 88.6581 45.14 87.7381 45.14C86.5648 45.14 85.5315 44.9067 84.6381 44.44C83.7448 43.9733 83.0515 43.3267 82.5581 42.5C82.0781 41.66 81.8381 40.7133 81.8381 39.66C81.8381 38.62 82.0715 37.6867 82.5381 36.86C83.0181 36.02 83.6781 35.3667 84.5181 34.9C85.3581 34.4333 86.3048 34.2 87.3581 34.2C88.3981 34.2 89.3248 34.4333 90.1381 34.9C90.9648 35.3533 91.6048 36 92.0581 36.84C92.5248 37.6667 92.7581 38.6267 92.7581 39.72ZM87.3581 36.2C86.5581 36.2 85.8781 36.44 85.3181 36.92C84.7715 37.3867 84.4381 38.0133 84.3181 38.8H90.3781C90.2715 38.0267 89.9448 37.4 89.3981 36.92C88.8515 36.44 88.1715 36.2 87.3581 36.2ZM101.02 34.32H103.52V41.36L109.42 34.32H111.7V45H109.2V37.96L103.32 45H101.02V34.32ZM125.563 45V37.92L121.963 43.88H120.883L117.343 37.9V45H115.063V34.32H117.683L121.483 41L125.463 34.32H127.803L127.823 45H125.563ZM140.196 34.32V45H137.956V41.78H135.136L132.956 45H130.276L132.796 41.44C132.023 41.1733 131.429 40.7667 131.016 40.22C130.616 39.66 130.416 38.9733 130.416 38.16C130.416 36.9333 130.849 35.9867 131.716 35.32C132.583 34.6533 133.776 34.32 135.296 34.32H140.196ZM135.376 36.42C133.763 36.42 132.956 37.0267 132.956 38.24C132.956 39.44 133.736 40.04 135.296 40.04H137.956V36.42H135.376Z" fill="#C3D0DA"/>
</svg>
