<svg width="284" height="75" viewBox="0 0 284 75" fill="none" xmlns="http://www.w3.org/2000/svg">
<rect x="1" y="1" width="282" height="73" rx="36.5" stroke="#B0C2CF" stroke-width="2"/>
<path d="M45.6352 39H42.0952V42.5H39.9552V39H36.4152V37H39.9552V33.5H42.0952V37H45.6352V39ZM60.1568 31V32.74L54.7168 45H51.9368L57.1968 33.2H51.6968V35.58H49.2768V31H60.1568ZM74.5321 48.88C73.7454 47.6667 73.1388 46.26 72.7121 44.66C72.2988 43.06 72.0921 41.3467 72.0921 39.52C72.0921 37.6933 72.2988 35.98 72.7121 34.38C73.1388 32.7667 73.7454 31.36 74.5321 30.16H76.9121C76.0988 31.6 75.4988 33.0867 75.1121 34.62C74.7388 36.14 74.5521 37.7733 74.5521 39.52C74.5521 41.2667 74.7388 42.9067 75.1121 44.44C75.4988 45.96 76.0988 47.44 76.9121 48.88H74.5321ZM79.4434 45H89.4434V46.52H79.4434V45ZM91.4434 45H101.443V46.52H91.4434V45ZM103.443 45H113.443V46.52H103.443V45ZM115.981 48.88C116.794 47.44 117.394 45.9533 117.781 44.42C118.168 42.8867 118.361 41.2533 118.361 39.52C118.361 37.7867 118.168 36.1533 117.781 34.62C117.394 33.0867 116.794 31.6 115.981 30.16H118.361C119.148 31.3467 119.748 32.7467 120.161 34.36C120.588 35.96 120.801 37.68 120.801 39.52C120.801 41.36 120.588 43.08 120.161 44.68C119.748 46.2667 119.148 47.6667 118.361 48.88H115.981ZM124.494 45H134.494V46.52H124.494V45ZM136.494 45H146.494V46.52H136.494V45ZM148.494 45H158.494V46.52H148.494V45ZM161.594 38.4H167.094V40.48H161.594V38.4ZM170.189 45H180.189V46.52H170.189V45ZM182.189 45H192.189V46.52H182.189V45ZM195.289 38.4H200.789V40.48H195.289V38.4ZM203.885 45H213.885V46.52H203.885V45ZM215.885 45H225.885V46.52H215.885V45Z" fill="#C3D0DA"/>
</svg>
