<svg width="270" height="75" viewBox="0 0 270 75" fill="none" xmlns="http://www.w3.org/2000/svg">
<rect x="1" y="1" width="268" height="73" rx="36.5" stroke="#EFC224" stroke-width="2"/>
<path d="M69.3663 31V45H66.7863V39.72C65.4663 40.2133 64.213 40.46 63.0263 40.46C61.2397 40.46 59.8597 40.0333 58.8863 39.18C57.9263 38.3133 57.4463 37.0733 57.4463 35.46V31H60.0263V35.18C60.0263 36.1667 60.313 36.92 60.8863 37.44C61.4597 37.96 62.2797 38.22 63.3463 38.22C64.5597 38.22 65.7063 37.9733 66.7863 37.48V31H69.3663ZM73.0101 34.32H75.5101V41.36L81.4101 34.32H83.6901V45H81.1901V37.96L75.3101 45H73.0101V34.32ZM95.513 36.44H91.773V45H89.273V36.44H85.513V34.32H95.513V36.44ZM101.306 34.2C102.88 34.2 104.08 34.58 104.906 35.34C105.746 36.0867 106.166 37.22 106.166 38.74V45H103.806V43.7C103.5 44.1667 103.06 44.5267 102.486 44.78C101.926 45.02 101.246 45.14 100.446 45.14C99.6465 45.14 98.9465 45.0067 98.3465 44.74C97.7465 44.46 97.2798 44.08 96.9465 43.6C96.6265 43.1067 96.4665 42.5533 96.4665 41.94C96.4665 40.98 96.8198 40.2133 97.5265 39.64C98.2465 39.0533 99.3732 38.76 100.906 38.76H103.666V38.6C103.666 37.8533 103.44 37.28 102.986 36.88C102.546 36.48 101.886 36.28 101.006 36.28C100.406 36.28 99.8132 36.3733 99.2265 36.56C98.6532 36.7467 98.1665 37.0067 97.7665 37.34L96.7865 35.52C97.3465 35.0933 98.0198 34.7667 98.8065 34.54C99.5932 34.3133 100.426 34.2 101.306 34.2ZM100.966 43.32C101.593 43.32 102.146 43.18 102.626 42.9C103.12 42.6067 103.466 42.1933 103.666 41.66V40.42H101.086C99.6465 40.42 98.9265 40.8933 98.9265 41.84C98.9265 42.2933 99.1065 42.6533 99.4665 42.92C99.8265 43.1867 100.326 43.32 100.966 43.32ZM117.72 36.44H113.98V45H111.48V36.44H107.72V34.32H117.72V36.44ZM124.894 37.84C126.254 37.84 127.294 38.1467 128.014 38.76C128.747 39.3733 129.114 40.24 129.114 41.36C129.114 42.5333 128.714 43.44 127.914 44.08C127.114 44.72 125.987 45.0333 124.534 45.02L119.534 45V34.32H122.034V37.82L124.894 37.84ZM124.314 43.18C125.047 43.1933 125.607 43.04 125.994 42.72C126.38 42.4 126.574 41.9333 126.574 41.32C126.574 40.72 126.387 40.28 126.014 40C125.64 39.72 125.074 39.5733 124.314 39.56L122.034 39.54V43.16L124.314 43.18ZM141.598 45.14C140.518 45.14 139.545 44.9067 138.678 44.44C137.812 43.9733 137.132 43.3267 136.638 42.5C136.158 41.66 135.918 40.7133 135.918 39.66C135.918 38.6067 136.158 37.6667 136.638 36.84C137.132 36.0133 137.812 35.3667 138.678 34.9C139.545 34.4333 140.518 34.2 141.598 34.2C142.692 34.2 143.672 34.4333 144.538 34.9C145.405 35.3667 146.078 36.0133 146.558 36.84C147.052 37.6667 147.298 38.6067 147.298 39.66C147.298 40.7133 147.052 41.66 146.558 42.5C146.078 43.3267 145.405 43.9733 144.538 44.44C143.672 44.9067 142.692 45.14 141.598 45.14ZM141.598 43C142.518 43 143.278 42.6933 143.878 42.08C144.478 41.4667 144.778 40.66 144.778 39.66C144.778 38.66 144.478 37.8533 143.878 37.24C143.278 36.6267 142.518 36.32 141.598 36.32C140.678 36.32 139.918 36.6267 139.318 37.24C138.732 37.8533 138.438 38.66 138.438 39.66C138.438 40.66 138.732 41.4667 139.318 42.08C139.918 42.6933 140.678 43 141.598 43ZM157.837 36.44H154.097V45H151.597V36.44H147.837V34.32H157.837V36.44ZM165.835 39.44C166.502 39.6267 167.015 39.9333 167.375 40.36C167.749 40.7733 167.935 41.2733 167.935 41.86C167.935 42.5133 167.715 43.0933 167.275 43.6C166.835 44.0933 166.229 44.48 165.455 44.76C164.682 45.04 163.802 45.18 162.815 45.18C161.989 45.18 161.182 45.0867 160.395 44.9C159.609 44.7 158.895 44.42 158.255 44.06L158.975 42.2C159.495 42.4933 160.082 42.72 160.735 42.88C161.389 43.04 162.042 43.12 162.695 43.12C163.535 43.12 164.189 42.9933 164.655 42.74C165.135 42.4733 165.375 42.1133 165.375 41.66C165.375 41.2467 165.189 40.9267 164.815 40.7C164.455 40.4733 163.942 40.36 163.275 40.36H161.195V38.68H163.075C163.702 38.68 164.189 38.5733 164.535 38.36C164.895 38.1467 165.075 37.8467 165.075 37.46C165.075 37.0733 164.862 36.7667 164.435 36.54C164.009 36.3133 163.422 36.2 162.675 36.2C161.609 36.2 160.482 36.46 159.295 36.98L158.655 35.14C160.055 34.4867 161.469 34.16 162.895 34.16C163.802 34.16 164.615 34.2867 165.335 34.54C166.055 34.78 166.615 35.1267 167.015 35.58C167.429 36.02 167.635 36.5267 167.635 37.1C167.635 37.62 167.475 38.0867 167.155 38.5C166.835 38.9 166.395 39.2133 165.835 39.44ZM175.73 37.84C177.09 37.84 178.13 38.1467 178.85 38.76C179.57 39.3733 179.93 40.24 179.93 41.36C179.93 42.5333 179.53 43.44 178.73 44.08C177.943 44.72 176.823 45.0333 175.37 45.02L170.53 45V34.32H173.03V37.82L175.73 37.84ZM181.31 34.32H183.81V45H181.31V34.32ZM175.15 43.18C175.883 43.1933 176.443 43.04 176.83 42.72C177.216 42.4 177.41 41.9333 177.41 41.32C177.41 40.72 177.223 40.28 176.85 40C176.476 39.72 175.91 39.5733 175.15 39.56L173.03 39.54V43.16L175.15 43.18ZM194.91 39.44C196.23 39.84 196.89 40.6933 196.89 42C196.89 42.96 196.53 43.7 195.81 44.22C195.09 44.74 194.024 45 192.61 45H187.17V34.32H192.39C193.697 34.32 194.717 34.56 195.45 35.04C196.184 35.52 196.55 36.2 196.55 37.08C196.55 37.6267 196.404 38.1 196.11 38.5C195.83 38.9 195.43 39.2133 194.91 39.44ZM189.55 38.78H192.17C193.464 38.78 194.11 38.3333 194.11 37.44C194.11 36.5733 193.464 36.14 192.17 36.14H189.55V38.78ZM192.41 43.18C193.784 43.18 194.47 42.7333 194.47 41.84C194.47 41.3733 194.31 41.0267 193.99 40.8C193.67 40.56 193.17 40.44 192.49 40.44H189.55V43.18H192.41ZM204.753 37.84C206.113 37.84 207.153 38.1467 207.873 38.76C208.593 39.3733 208.953 40.24 208.953 41.36C208.953 42.5333 208.553 43.44 207.753 44.08C206.966 44.72 205.846 45.0333 204.393 45.02L199.553 45V34.32H202.053V37.82L204.753 37.84ZM210.333 34.32H212.833V45H210.333V34.32ZM204.173 43.18C204.906 43.1933 205.466 43.04 205.853 42.72C206.24 42.4 206.433 41.9333 206.433 41.32C206.433 40.72 206.246 40.28 205.873 40C205.5 39.72 204.933 39.5733 204.173 39.56L202.053 39.54V43.16L204.173 43.18Z" fill="#EFC224"/>
</svg>
