<svg width="307" height="75" viewBox="0 0 307 75" fill="none" xmlns="http://www.w3.org/2000/svg">
<rect width="307" height="75" rx="37.5" fill="#EFC224"/>
<path d="M73.4517 44.5649C72.0251 44.5649 70.7384 44.2582 69.5917 43.6449C68.4451 43.0182 67.5451 42.1582 66.8917 41.0649C66.2384 39.9582 65.9117 38.7249 65.9117 37.3649C65.9117 36.0049 66.2384 34.7782 66.8917 33.6849C67.5451 32.5782 68.4451 31.7182 69.5917 31.1049C70.7384 30.4782 72.0251 30.1649 73.4517 30.1649C74.8784 30.1649 76.1651 30.4782 77.3117 31.1049C78.4584 31.7182 79.3584 32.5715 80.0117 33.6649C80.6651 34.7582 80.9917 35.9915 80.9917 37.3649C80.9917 38.7382 80.6651 39.9715 80.0117 41.0649C79.3584 42.1582 78.4584 43.0182 77.3117 43.6449C76.1651 44.2582 74.8784 44.5649 73.4517 44.5649ZM73.4517 42.2849C74.3851 42.2849 75.2251 42.0782 75.9717 41.6649C76.7184 41.2382 77.3051 40.6515 77.7317 39.9049C78.1584 39.1449 78.3717 38.2982 78.3717 37.3649C78.3717 36.4315 78.1584 35.5915 77.7317 34.8449C77.3051 34.0849 76.7184 33.4982 75.9717 33.0849C75.2251 32.6582 74.3851 32.4449 73.4517 32.4449C72.5184 32.4449 71.6784 32.6582 70.9317 33.0849C70.1851 33.4982 69.5984 34.0849 69.1717 34.8449C68.7451 35.5915 68.5317 36.4315 68.5317 37.3649C68.5317 38.2982 68.7451 39.1449 69.1717 39.9049C69.5984 40.6515 70.1851 41.2382 70.9317 41.6649C71.6784 42.0782 72.5184 42.2849 73.4517 42.2849ZM88.4463 44.5049C87.3396 44.5049 86.3463 44.2715 85.4663 43.8049C84.5863 43.3382 83.8996 42.6915 83.4063 41.8649C82.9129 41.0249 82.6663 40.0782 82.6663 39.0249C82.6663 37.9715 82.9129 37.0315 83.4063 36.2049C83.8996 35.3782 84.5796 34.7315 85.4463 34.2649C86.3263 33.7982 87.3263 33.5649 88.4463 33.5649C89.4996 33.5649 90.4196 33.7782 91.2063 34.2049C92.0063 34.6315 92.6063 35.2449 93.0063 36.0449L91.0863 37.1649C90.7796 36.6715 90.3929 36.3049 89.9263 36.0649C89.4729 35.8115 88.9729 35.6849 88.4263 35.6849C87.4929 35.6849 86.7196 35.9915 86.1063 36.6049C85.4929 37.2049 85.1863 38.0115 85.1863 39.0249C85.1863 40.0382 85.4863 40.8515 86.0863 41.4649C86.6996 42.0649 87.4796 42.3649 88.4263 42.3649C88.9729 42.3649 89.4729 42.2449 89.9263 42.0049C90.3929 41.7515 90.7796 41.3782 91.0863 40.8849L93.0063 42.0049C92.5929 42.8049 91.9863 43.4249 91.1863 43.8649C90.3996 44.2915 89.4863 44.5049 88.4463 44.5049ZM103.57 35.8049H99.8297V44.3649H97.3297V35.8049H93.5697V33.6849H103.57V35.8049ZM109.363 33.5649C110.936 33.5649 112.136 33.9449 112.963 34.7049C113.803 35.4515 114.223 36.5849 114.223 38.1049V44.3649H111.863V43.0649C111.556 43.5315 111.116 43.8915 110.543 44.1449C109.983 44.3849 109.303 44.5049 108.503 44.5049C107.703 44.5049 107.003 44.3715 106.403 44.1049C105.803 43.8249 105.336 43.4449 105.003 42.9649C104.683 42.4715 104.523 41.9182 104.523 41.3049C104.523 40.3449 104.876 39.5782 105.583 39.0049C106.303 38.4182 107.43 38.1249 108.963 38.1249H111.723V37.9649C111.723 37.2182 111.496 36.6449 111.043 36.2449C110.603 35.8449 109.943 35.6449 109.063 35.6449C108.463 35.6449 107.87 35.7382 107.283 35.9249C106.71 36.1115 106.223 36.3715 105.823 36.7049L104.843 34.8849C105.403 34.4582 106.076 34.1315 106.863 33.9049C107.65 33.6782 108.483 33.5649 109.363 33.5649ZM109.023 42.6849C109.65 42.6849 110.203 42.5449 110.683 42.2649C111.176 41.9715 111.523 41.5582 111.723 41.0249V39.7849H109.143C107.703 39.7849 106.983 40.2582 106.983 41.2049C106.983 41.6582 107.163 42.0182 107.523 42.2849C107.883 42.5515 108.383 42.6849 109.023 42.6849ZM125.057 38.8049C126.377 39.2049 127.037 40.0582 127.037 41.3649C127.037 42.3249 126.677 43.0649 125.957 43.5849C125.237 44.1049 124.17 44.3649 122.757 44.3649H117.317V33.6849H122.537C123.843 33.6849 124.863 33.9249 125.597 34.4049C126.33 34.8849 126.697 35.5649 126.697 36.4449C126.697 36.9915 126.55 37.4649 126.257 37.8649C125.977 38.2649 125.577 38.5782 125.057 38.8049ZM119.697 38.1449H122.317C123.61 38.1449 124.257 37.6982 124.257 36.8049C124.257 35.9382 123.61 35.5049 122.317 35.5049H119.697V38.1449ZM122.557 42.5449C123.93 42.5449 124.617 42.0982 124.617 41.2049C124.617 40.7382 124.457 40.3915 124.137 40.1649C123.817 39.9249 123.317 39.8049 122.637 39.8049H119.697V42.5449H122.557ZM129.7 33.6849H132.2V40.7249L138.1 33.6849H140.38V44.3649H137.88V37.3249L132 44.3649H129.7V33.6849ZM152.203 35.8049H148.463V44.3649H145.963V35.8049H142.203V33.6849H152.203V35.8049ZM159.376 37.2049C160.736 37.2049 161.776 37.5115 162.496 38.1249C163.229 38.7382 163.596 39.6049 163.596 40.7249C163.596 41.8982 163.196 42.8049 162.396 43.4449C161.596 44.0849 160.469 44.3982 159.016 44.3849L154.016 44.3649V33.6849H156.516V37.1849L159.376 37.2049ZM158.796 42.5449C159.529 42.5582 160.089 42.4049 160.476 42.0849C160.863 41.7649 161.056 41.2982 161.056 40.6849C161.056 40.0849 160.869 39.6449 160.496 39.3649C160.123 39.0849 159.556 38.9382 158.796 38.9249L156.516 38.9049V42.5249L158.796 42.5449ZM177.701 38.8049C178.367 38.9915 178.881 39.2982 179.241 39.7249C179.614 40.1382 179.801 40.6382 179.801 41.2249C179.801 41.8782 179.581 42.4582 179.141 42.9649C178.701 43.4582 178.094 43.8449 177.321 44.1249C176.547 44.4049 175.667 44.5449 174.681 44.5449C173.854 44.5449 173.047 44.4515 172.261 44.2649C171.474 44.0649 170.761 43.7849 170.121 43.4249L170.841 41.5649C171.361 41.8582 171.947 42.0849 172.601 42.2449C173.254 42.4049 173.907 42.4849 174.561 42.4849C175.401 42.4849 176.054 42.3582 176.521 42.1049C177.001 41.8382 177.241 41.4782 177.241 41.0249C177.241 40.6115 177.054 40.2915 176.681 40.0649C176.321 39.8382 175.807 39.7249 175.141 39.7249H173.061V38.0449H174.941C175.567 38.0449 176.054 37.9382 176.401 37.7249C176.761 37.5115 176.941 37.2115 176.941 36.8249C176.941 36.4382 176.727 36.1315 176.301 35.9049C175.874 35.6782 175.287 35.5649 174.541 35.5649C173.474 35.5649 172.347 35.8249 171.161 36.3449L170.521 34.5049C171.921 33.8515 173.334 33.5249 174.761 33.5249C175.667 33.5249 176.481 33.6515 177.201 33.9049C177.921 34.1449 178.481 34.4915 178.881 34.9449C179.294 35.3849 179.501 35.8915 179.501 36.4649C179.501 36.9849 179.341 37.4515 179.021 37.8649C178.701 38.2649 178.261 38.5782 177.701 38.8049ZM186.375 33.5649C187.948 33.5649 189.148 33.9449 189.975 34.7049C190.815 35.4515 191.235 36.5849 191.235 38.1049V44.3649H188.875V43.0649C188.568 43.5315 188.128 43.8915 187.555 44.1449C186.995 44.3849 186.315 44.5049 185.515 44.5049C184.715 44.5049 184.015 44.3715 183.415 44.1049C182.815 43.8249 182.348 43.4449 182.015 42.9649C181.695 42.4715 181.535 41.9182 181.535 41.3049C181.535 40.3449 181.888 39.5782 182.595 39.0049C183.315 38.4182 184.442 38.1249 185.975 38.1249H188.735V37.9649C188.735 37.2182 188.508 36.6449 188.055 36.2449C187.615 35.8449 186.955 35.6449 186.075 35.6449C185.475 35.6449 184.882 35.7382 184.295 35.9249C183.722 36.1115 183.235 36.3715 182.835 36.7049L181.855 34.8849C182.415 34.4582 183.088 34.1315 183.875 33.9049C184.662 33.6782 185.495 33.5649 186.375 33.5649ZM186.035 42.6849C186.662 42.6849 187.215 42.5449 187.695 42.2649C188.188 41.9715 188.535 41.5582 188.735 41.0249V39.7849H186.155C184.715 39.7849 183.995 40.2582 183.995 41.2049C183.995 41.6582 184.175 42.0182 184.535 42.2849C184.895 42.5515 185.395 42.6849 186.035 42.6849ZM203.348 33.6849V44.3649H201.108V41.1449H198.288L196.108 44.3649H193.428L195.948 40.8049C195.175 40.5382 194.582 40.1315 194.168 39.5849C193.768 39.0249 193.568 38.3382 193.568 37.5249C193.568 36.2982 194.002 35.3515 194.868 34.6849C195.735 34.0182 196.928 33.6849 198.448 33.6849H203.348ZM198.528 35.7849C196.915 35.7849 196.108 36.3915 196.108 37.6049C196.108 38.8049 196.888 39.4049 198.448 39.4049H201.108V35.7849H198.528ZM214.451 38.8049C215.771 39.2049 216.431 40.0582 216.431 41.3649C216.431 42.3249 216.071 43.0649 215.351 43.5849C214.631 44.1049 213.565 44.3649 212.151 44.3649H206.711V33.6849H211.931C213.238 33.6849 214.258 33.9249 214.991 34.4049C215.725 34.8849 216.091 35.5649 216.091 36.4449C216.091 36.9915 215.945 37.4649 215.651 37.8649C215.371 38.2649 214.971 38.5782 214.451 38.8049ZM209.091 38.1449H211.711C213.005 38.1449 213.651 37.6982 213.651 36.8049C213.651 35.9382 213.005 35.5049 211.711 35.5049H209.091V38.1449ZM211.951 42.5449C213.325 42.5449 214.011 42.0982 214.011 41.2049C214.011 40.7382 213.851 40.3915 213.531 40.1649C213.211 39.9249 212.711 39.8049 212.031 39.8049H209.091V42.5449H211.951ZM223.534 40.0849H221.594V44.3649H219.094V33.6849H221.594V38.0049H223.594L226.754 33.6849H229.434L225.554 38.8249L229.694 44.3649H226.754L223.534 40.0849ZM240.932 33.6849L235.932 45.2249C235.465 46.3849 234.899 47.1982 234.232 47.6649C233.565 48.1449 232.759 48.3849 231.812 48.3849C231.279 48.3849 230.752 48.2982 230.232 48.1249C229.712 47.9515 229.285 47.7115 228.952 47.4049L229.952 45.5649C230.192 45.7915 230.472 45.9715 230.792 46.1049C231.125 46.2382 231.459 46.3049 231.792 46.3049C232.232 46.3049 232.592 46.1915 232.872 45.9649C233.165 45.7382 233.432 45.3582 233.672 44.8249L233.852 44.4049L229.192 33.6849H231.792L235.152 41.5849L238.532 33.6849H240.932Z" fill="#261E01"/>
</svg>
